#!OML:ASF H:\ColoradoDance\Project 1\Capture day 1\Session 8\male.ASF
:FULLY-SPECIFIED
:DEGREES
31
upperback 0.093033 -2.147340 -8.872450
rfoot -31.003099 -15.269200
lradius 22.877399
lthumb 8.404570 18.833799
rradius 22.553600
lwrist 15.012100
rhand -34.908699 -5.098140
rhumerus -24.129999 -34.276798 16.077200
lowerneck 0.008027 14.217500 11.548400
lhand -17.860901 -10.979000
ltibia 60.539299
head 4.103710 9.443710 -1.389400
rwrist -12.228800
lfingers 7.125020
rtoes -1.129350
lowerback 3.908460 -0.787585 -10.671900
rfingers 7.125020
lclavicle 0.000000 0.000000
upperneck 9.561250 18.622299 -1.632590
rfemur -37.204601 -21.064501 54.104099
thorax -2.104060 -1.175370 -3.177880
rclavicle 0.000000 0.000000
rtibia 52.290600
lfoot -40.200500 6.464820
lhumerus 40.143002 64.137398 42.344601
rthumb -8.056610 -34.924599
root -4.106940 17.769501 6.434730 -276.302002 -73.947800 -77.676102
ltoes -19.806801
lfemur -23.249800 21.998800 0.141661
32
upperback 0.158280 -2.084550 -8.789440
rfoot -29.711800 -14.982400
lradius 22.350401
lthumb 8.359620 18.158600
rradius 22.422001
lwrist 14.366500
rhand -35.108501 -5.053230
rhumerus -22.926500 -34.816799 15.578400
lowerneck -0.156633 14.045900 11.635000
lhand -17.907499 -11.656000
ltibia 59.895000
head 4.406380 9.307610 -1.223010
rwrist -12.579800
lfingers 7.125020
rtoes -5.111870
lowerback 4.098870 -0.751711 -10.200900
rfingers 7.125020
lclavicle 0.000000 -0.000000
upperneck 10.641000 18.292601 -1.120440
rfemur -36.848999 -22.015600 53.712502
thorax -2.154020 -1.142440 -3.345440
rclavicle 0.000000 -0.000000
rtibia 53.596001
lfoot -39.507702 4.516960
lhumerus 40.502899 64.180397 42.205399
rthumb -8.249500 -34.872200
root -4.297590 17.815500 6.501210 -277.895996 -73.590202 -76.511200
ltoes -18.506201
lfemur -21.723600 22.091400 0.873545
33
upperback 0.209394 -2.049840 -8.321740
rfoot -28.514900 -13.795900
lradius 21.930901
lthumb 7.816480 17.750299
rradius 22.806200
lwrist 13.576100
rhand -35.382702 -4.487690
rhumerus -19.608400 -35.749401 14.144500
lowerneck -0.154139 14.229600 10.975700
lhand -18.470200 -12.085200
ltibia 63.264599
head 4.590980 9.403670 -1.019790
rwrist -11.978800
lfingers 7.125020
rtoes -8.087200
lowerback 4.162870 -0.757077 -10.214900
rfingers 7.125020
lclavicle -0.000000 0.000000
upperneck 11.466600 18.514999 -0.863674
rfemur -36.011101 -23.004000 53.187500
thorax -2.114820 -1.110620 -2.841690
rclavicle -0.000000 0.000000
rtibia 54.320301
lfoot -32.665001 -0.691862
lhumerus 40.367199 65.123703 41.632198
rthumb -8.514130 -34.296001
root -4.499010 17.900700 6.536490 -277.756012 -73.463203 -77.037903
ltoes -18.573500
lfemur -22.208000 24.213900 2.509360
34
upperback 0.158820 -1.797900 -8.253530
rfoot -24.793100 -11.909000
lradius 21.639799
lthumb 7.810360 18.243000
rradius 22.642900
lwrist 12.736500
rhand -34.859299 -3.978340
rhumerus -18.614500 -35.376701 13.045800
lowerneck 0.263523 14.173400 10.943300
lhand -18.476601 -11.592800
ltibia 64.380798
head 4.531550 9.371940 -0.887723
rwrist -11.788800
lfingers 7.125020
rtoes -7.198780
lowerback 4.302250 -0.569714 -9.783520
rfingers 7.125020
lclavicle -0.000000 -0.000000
upperneck 11.686100 18.407499 -0.297076
rfemur -35.531700 -22.929501 52.878700
thorax -2.261150 -0.980743 -3.016280
rclavicle -0.000000 -0.000000
rtibia 54.948200
lfoot -26.350800 -3.564750
lhumerus 42.905800 65.705399 43.178299
rthumb -8.008980 -33.806599
root -4.722480 18.066601 6.541860 -277.636993 -72.997597 -77.187302
ltoes -16.123600
lfemur -22.268999 24.771999 4.080900
35
upperback 0.118960 -1.642310 -8.524190
rfoot -20.484501 -10.349600
lradius 22.212799
lthumb 7.972730 18.342699
rradius 23.206100
lwrist 13.757100
rhand -35.572899 -3.777620
rhumerus -19.162800 -36.030800 14.227200
lowerneck 0.343716 14.117400 11.134400
lhand -18.308399 -11.487000
ltibia 64.350899
head 4.423500 9.341140 -0.906959
rwrist -13.148700
lfingers 7.125020
rtoes -8.123480
lowerback 3.891290 -0.478870 -9.788070
rfingers 7.125020
lclavicle 0.000000 0.000000
upperneck 11.367500 18.327900 -0.192710
rfemur -35.959702 -23.206600 53.090302
thorax -2.083640 -0.917078 -3.316360
rclavicle 0.000000 0.000000
rtibia 55.067101
lfoot -20.790600 -6.422450
lhumerus 44.567501 65.445801 43.915298
rthumb -8.697680 -33.578400
root -4.927220 18.253401 6.516480 -276.949005 -72.608597 -77.002800
ltoes -13.046100
lfemur -22.847700 25.667601 5.165650
36
upperback 0.407412 -1.640430 -9.012750
rfoot -17.716999 -11.444600
lradius 23.686199
lthumb 7.690880 18.213200
rradius 24.145399
lwrist 15.804300
rhand -37.652699 -2.420180
rhumerus -20.111601 -37.950699 15.832900
lowerneck 0.113613 13.875900 11.022900
lhand -18.600401 -11.627000
ltibia 63.511101
head 4.164010 9.172880 -0.847941
rwrist -13.585400
lfingers 7.125020
rtoes -5.879320
lowerback 3.867710 -0.458753 -10.148700
rfingers 7.125020
lclavicle -0.000000 0.000000
upperneck 10.602000 17.979601 0.115066
rfemur -37.177200 -21.975500 53.078899
thorax -1.776810 -0.943913 -3.642000
rclavicle -0.000000 0.000000
rtibia 55.035900
lfoot -19.283300 -5.639700
lhumerus 43.732201 63.766701 42.363602
rthumb -10.704200 -32.127499
root -5.012520 18.401300 6.470800 -278.251007 -72.850304 -74.626099
ltoes -9.424750
lfemur -24.036400 24.172100 4.226300
37
upperback 0.549180 -1.160880 -9.116860
rfoot -16.967800 -9.568190
lradius 23.875700
lthumb 6.458870 18.040100
rradius 24.954700
lwrist 15.887500
rhand -37.577900 -2.020210
rhumerus -19.525700 -38.424198 15.421100
lowerneck -0.238306 13.890900 11.286400
lhand -19.876699 -11.841500
ltibia 63.370201
head 4.129690 9.168810 -0.831988
rwrist -13.607300
lfingers 7.125020
rtoes -7.890090
lowerback 3.924370 -0.097182 -9.989610
rfingers 7.125020
lclavicle -0.000000 -0.000000
upperneck 10.277000 17.949400 0.245530
rfemur -37.022301 -22.079599 53.802898
thorax -1.670350 -0.718290 -3.865420
rclavicle -0.000000 -0.000000
rtibia 54.644100
lfoot -19.294600 -4.633200
lhumerus 46.979000 63.856800 44.640701
rthumb -10.632200 -31.731199
root -4.975900 18.414000 6.418770 -273.973999 -72.486603 -78.613602
ltoes -11.760100
lfemur -23.953400 24.165199 4.918480
38
upperback 0.657378 -1.065690 -9.230410
rfoot -15.116200 -8.296350
lradius 23.734600
lthumb 5.995000 17.851200
rradius 24.752399
lwrist 15.460900
rhand -37.510799 -2.044380
rhumerus -20.819000 -38.494400 16.402700
lowerneck -0.237270 13.704100 11.602800
lhand -20.357201 -12.044000
ltibia 63.172401
head 4.296620 9.051330 -0.981943
rwrist -14.180100
lfingers 7.125020
rtoes -9.229720
lowerback 3.414600 -0.072557 -10.507800
rfingers 7.125020
lclavicle 0.000000 -0.000000
upperneck 9.454810 17.690100 0.391411
rfemur -37.969398 -21.981400 54.104801
thorax -1.264410 -0.688070 -3.713380
rclavicle 0.000000 -0.000000
rtibia 55.010300
lfoot -17.618900 -4.986500
lhumerus 50.945000 64.059303 47.703098
rthumb -10.567400 -31.758699
root -4.933670 18.472799 6.346920 -273.079987 -72.411903 -78.944801
ltoes -12.141900
lfemur -24.698601 24.912001 5.113770
39
upperback 0.526786 -0.918070 -9.336230
rfoot -13.655400 -7.102060
lradius 23.116600
lthumb 6.006050 17.992800
rradius 24.179501
lwrist 14.216200
rhand -36.989601 -2.259040
rhumerus -21.549601 -39.349701 17.258200
lowerneck -0.340548 13.681100 12.007800
lhand -20.345699 -11.902100
ltibia 62.706600
head 4.131730 9.035030 -0.938845
rwrist -14.946000
lfingers 7.125020
rtoes -12.036000
lowerback 3.297250 0.039761 -10.354300
rfingers 7.125020
lclavicle -0.000000 -0.000000
upperneck 10.078000 17.630800 0.258069
rfemur -37.869202 -22.411699 53.684700
thorax -1.341920 -0.614642 -3.917530
rclavicle -0.000000 -0.000000
rtibia 55.105701
lfoot -16.580200 -4.621330
lhumerus 54.348999 64.425301 50.766102
rthumb -10.064600 -31.998400
root -4.921740 18.527800 6.300830 -272.502991 -72.706596 -79.631401
ltoes -11.907600
lfemur -24.308201 24.236099 4.992980
40
upperback 0.548516 -0.635716 -9.302800
rfoot -14.524100 -5.811860
lradius 23.048700
lthumb 5.574050 17.777901
rradius 24.234100
lwrist 13.829000
rhand -37.499199 -2.325790
rhumerus -22.286301 -39.487701 17.759800
lowerneck -0.553543 13.620700 12.485700
lhand -20.793200 -12.128800
ltibia 62.979900
head 4.220390 8.997870 -1.087670
rwrist -14.145000
lfingers 7.125020
rtoes -16.388901
lowerback 2.836640 0.180040 -10.098200
rfingers 7.125020
lclavicle 0.000000 0.000000
upperneck 10.032400 17.543501 -0.091329
rfemur -37.037498 -22.736000 53.555302
thorax -1.061480 -0.481871 -4.035510
rclavicle 0.000000 0.000000
rtibia 55.207901
lfoot -15.960100 -4.922790
lhumerus 57.217499 64.739601 53.087799
rthumb -10.556200 -32.040699
root -4.939170 18.503799 6.217440 -271.497009 -72.711304 -81.033699
ltoes -11.885800
lfemur -23.837601 24.851299 5.678090
41
upperback 0.365453 -0.495711 -9.312320
rfoot -17.156900 -4.799400
lradius 23.274700
lthumb 5.308790 17.402500
rradius 23.999500
lwrist 14.140900
rhand -37.939999 -2.923970
rhumerus -22.091000 -40.339298 17.882799
lowerneck -0.590835 13.670600 12.610800
lhand -21.067900 -12.511000
ltibia 63.368099
head 4.195860 9.040670 -1.189360
rwrist -15.111400
lfingers 7.125020
rtoes -21.539801
lowerback 2.586390 0.274300 -10.091100
rfingers 7.125020
lclavicle -0.000000 0.000000
upperneck 9.792410 17.645399 -0.399658
rfemur -36.268002 -23.651899 52.833199
thorax -1.113470 -0.409772 -4.055370
rclavicle -0.000000 0.000000
rtibia 55.185200
lfoot -17.256001 -3.603320
lhumerus 57.325001 64.885902 52.437000
rthumb -10.981400 -32.616798
root -4.958500 18.458500 6.154560 -270.270996 -73.343002 -82.451500
ltoes -11.816200
lfemur -23.489401 24.720501 5.025680
42
upperback 0.242662 -0.523677 -9.188300
rfoot -15.806000 -4.662190
lradius 23.620199
lthumb 5.364080 17.793501
rradius 23.410801
lwrist 14.687900
rhand -37.823799 -2.754350
rhumerus -21.496000 -39.954498 17.333799
lowerneck -0.110666 13.736500 12.582300
lhand -21.010599 -12.118700
ltibia 63.455299
head 4.023260 9.112480 -1.247180
rwrist -15.114300
lfingers 7.125020
rtoes -17.675200
lowerback 2.565960 0.260079 -10.219000
rfingers 7.125020
lclavicle -0.000000 0.000000
upperneck 9.435630 17.811199 -0.481176
rfemur -36.344002 -23.386600 53.224499
thorax -1.228670 -0.415365 -3.851630
rclavicle -0.000000 0.000000
rtibia 55.341099
lfoot -16.284201 -4.036560
lhumerus 57.231400 64.690201 51.228699
rthumb -10.869300 -32.453098
root -4.994910 18.459101 6.096260 -268.962006 -73.300499 -83.745598
ltoes -12.506400
lfemur -23.292101 24.824200 5.610930
